<?xml version="1.0" standalone="yes"?>

<svg version="1.1" viewBox="0.0 0.0 487.0 413.0" fill="none" stroke="none" stroke-linecap="square" stroke-miterlimit="10" xmlns="http://www.w3.org/2000/svg" xmlns:xlink="http://www.w3.org/1999/xlink"><clipPath id="p.0"><path d="m0 0l487.0 0l0 413.0l-487.0 0l0 -413.0z" clip-rule="nonzero"></path></clipPath><g clip-path="url(#p.0)"><path fill="#000000" fill-opacity="0.0" d="m0 0l487.2362 0l0 413.88715l-487.2362 0z" fill-rule="nonzero"></path><path fill="#b6d7a8" d="m22.45407 66.24672l0 0c0 -26.666222 21.610193 -48.283463 48.267715 -48.283463l0 0c12.801392 0 25.078476 5.0869923 34.130424 14.141897c9.051956 9.054909 14.137291 21.335995 14.137291 34.141567l0 0c0 26.666222 -21.610191 48.283463 -48.267715 48.283463l0 0c-26.657524 0 -48.267715 -21.61724 -48.267715 -48.283463z" fill-rule="nonzero"></path><path stroke="#000000" stroke-width="2.0" stroke-linejoin="round" stroke-linecap="butt" d="m22.45407 66.24672l0 0c0 -26.666222 21.610193 -48.283463 48.267715 -48.283463l0 0c12.801392 0 25.078476 5.0869923 34.130424 14.141897c9.051956 9.054909 14.137291 21.335995 14.137291 34.141567l0 0c0 26.666222 -21.610191 48.283463 -48.267715 48.283463l0 0c-26.657524 0 -48.267715 -21.61724 -48.267715 -48.283463z" fill-rule="nonzero"></path><path fill="#000000" d="m55.404953 71.66672l0.234375 1.484375q-0.703125 0.140625 -1.265625 0.140625q-0.90625 0 -1.40625 -0.28125q-0.5 -0.296875 -0.703125 -0.75q-0.203125 -0.46875 -0.203125 -1.984375l0 -5.65625l-1.234375 0l0 -1.3125038l1.234375 0l0 -2.4375l1.65625 -1.0l0 3.4375l1.6875 0l0 1.3125038l-1.6875 0l0 5.75q0 0.71875 0.078125 0.921875q0.09375 0.203125 0.296875 0.328125q0.203125 0.125 0.578125 0.125q0.265625 0 0.734375 -0.078125zm8.277054 -1.671875l1.71875 0.21875q-0.40625 1.5 -1.515625 2.34375q-1.09375 0.828125 -2.8125 0.828125q-2.15625 0 -3.421875 -1.328125q-1.265625 -1.328125 -1.265625 -3.734375q0 -2.484375 1.265625 -3.859375q1.28125 -1.3750038 3.328125 -1.3750038q1.984375 0 3.234375 1.3437538q1.25 1.34375 1.25 3.796875q0 0.140625 -0.015625 0.4375l-7.34375 0q0.09375 1.625 0.921875 2.484375q0.828125 0.859375 2.0625 0.859375q0.90625 0 1.546875 -0.46875q0.65625 -0.484375 1.046875 -1.546875zm-5.484375 -2.703125l5.5 0q-0.109375 -1.234375 -0.625 -1.859375q-0.796875 -0.96875 -2.078125 -0.96875q-1.140625 0 -1.9375 0.78125q-0.78125 0.765625 -0.859375 2.046875zm8.438217 2.9375l1.65625 -0.265625q0.140625 1.0 0.765625 1.53125q0.640625 0.515625 1.78125 0.515625q1.15625 0 1.703125 -0.46875q0.5625 -0.46875 0.5625 -1.09375q0 -0.5625 -0.484375 -0.890625q-0.34375 -0.21875 -1.703125 -0.5625q-1.84375 -0.46875 -2.5625 -0.796875q-0.703125 -0.34375 -1.078125 -0.9375q-0.359375 -0.609375 -0.359375 -1.328125q0 -0.65625 0.296875 -1.21875q0.3125 -0.5625 0.828125 -0.9375038q0.390625 -0.28125 1.0625 -0.484375q0.671875 -0.203125 1.4375 -0.203125q1.171875 0 2.046875 0.34375q0.875 0.328125 1.28125 0.9062538q0.421875 0.5625 0.578125 1.515625l-1.625 0.21875q-0.109375 -0.75 -0.65625 -1.171875q-0.53125 -0.4375 -1.5 -0.4375q-1.15625 0 -1.640625 0.390625q-0.484375 0.375 -0.484375 0.875q0 0.328125 0.203125 0.59375q0.203125 0.265625 0.640625 0.4375q0.25 0.09375 1.46875 0.4375q1.765625 0.46875 2.46875 0.765625q0.703125 0.296875 1.09375 0.875q0.40625 0.578125 0.40625 1.4375q0 0.828125 -0.484375 1.578125q-0.484375 0.734375 -1.40625 1.140625q-0.921875 0.390625 -2.078125 0.390625q-1.921875 0 -2.9375 -0.796875q-1.0 -0.796875 -1.28125 -2.359375zm13.65625 1.4375l0.234375 1.484375q-0.703125 0.140625 -1.265625 0.140625q-0.90625 0 -1.40625 -0.28125q-0.5 -0.296875 -0.703125 -0.75q-0.203125 -0.46875 -0.203125 -1.984375l0 -5.65625l-1.234375 0l0 -1.3125038l1.234375 0l0 -2.4375l1.65625 -1.0l0 3.4375l1.6875 0l0 1.3125038l-1.6875 0l0 5.75q0 0.71875 0.078125 0.921875q0.09375 0.203125 0.296875 0.328125q0.203125 0.125 0.578125 0.125q0.265625 0 0.734375 -0.078125zm1.0583038 -5.203125q0 -2.421875 0.5 -3.8906288q0.5 -1.46875 1.46875 -2.265625q0.984375 -0.796875 2.46875 -0.796875q1.09375 0 1.921875 0.4375q0.828125 0.4375 1.359375 1.28125q0.546875 0.828125 0.84375 2.015625q0.3125 1.1875038 0.3125 3.2187538q0 2.390625 -0.5 3.859375q-0.484375 1.46875 -1.46875 2.28125q-0.96875 0.796875 -2.46875 0.796875q-1.96875 0 -3.078125 -1.40625q-1.359375 -1.703125 -1.359375 -5.53125zm1.71875 0q0 3.34375 0.78125 4.453125q0.796875 1.109375 1.9375 1.109375q1.15625 0 1.9375 -1.109375q0.78125 -1.125 0.78125 -4.453125q0 -3.3593788 -0.78125 -4.468754q-0.78125 -1.109375 -1.953125 -1.109375q-1.15625 0 -1.828125 0.984375q-0.875 1.234375 -0.875 4.593754z" fill-rule="nonzero"></path><path fill="#b6d7a8" d="m140.40945 64.94751l0 0c0 -26.666225 21.610184 -48.28347 48.267715 -48.28347l0 0c12.801392 0 25.078476 5.086994 34.130432 14.141899c9.051941 9.054907 14.137283 21.335997 14.137283 34.14157l0 0c0 26.666222 -21.610199 48.283463 -48.267715 48.283463l0 0c-26.657532 0 -48.267715 -21.61724 -48.267715 -48.283463z" fill-rule="nonzero"></path><path stroke="#000000" stroke-width="2.0" stroke-linejoin="round" stroke-linecap="butt" d="m140.40945 64.94751l0 0c0 -26.666225 21.610184 -48.28347 48.267715 -48.28347l0 0c12.801392 0 25.078476 5.086994 34.130432 14.141899c9.051941 9.054907 14.137283 21.335997 14.137283 34.14157l0 0c0 26.666222 -21.610199 48.283463 -48.267715 48.283463l0 0c-26.657532 0 -48.267715 -21.61724 -48.267715 -48.283463z" fill-rule="nonzero"></path><path fill="#000000" d="m173.36034 70.3675l0.234375 1.484375q-0.703125 0.140625 -1.265625 0.140625q-0.90625 0 -1.40625 -0.28125q-0.5 -0.296875 -0.703125 -0.75q-0.203125 -0.46875 -0.203125 -1.984375l0 -5.656246l-1.234375 0l0 -1.3125l1.234375 0l0 -2.4375l1.65625 -1.0l0 3.4375l1.6875 0l0 1.3125l-1.6875 0l0 5.749996q0 0.71875 0.078125 0.921875q0.09375 0.203125 0.296875 0.328125q0.203125 0.125 0.578125 0.125q0.265625 0 0.734375 -0.078125zm8.277054 -1.671875l1.71875 0.21875q-0.40625 1.5 -1.515625 2.34375q-1.09375 0.828125 -2.8125 0.828125q-2.15625 0 -3.421875 -1.328125q-1.265625 -1.328125 -1.265625 -3.734375q0 -2.484375 1.265625 -3.8593712q1.28125 -1.375 3.328125 -1.375q1.984375 0 3.234375 1.34375q1.25 1.3437462 1.25 3.7968712q0 0.140625 -0.015625 0.4375l-7.34375 0q0.09375 1.625 0.921875 2.484375q0.828125 0.859375 2.0625 0.859375q0.90625 0 1.546875 -0.46875q0.65625 -0.484375 1.046875 -1.546875zm-5.484375 -2.703125l5.5 0q-0.109375 -1.234375 -0.625 -1.859375q-0.796875 -0.9687462 -2.078125 -0.9687462q-1.140625 0 -1.9375 0.78125q-0.78125 0.7656212 -0.859375 2.0468712zm8.438217 2.9375l1.65625 -0.265625q0.140625 1.0 0.765625 1.53125q0.640625 0.515625 1.78125 0.515625q1.15625 0 1.703125 -0.46875q0.5625 -0.46875 0.5625 -1.09375q0 -0.5625 -0.484375 -0.890625q-0.34375 -0.21875 -1.703125 -0.5625q-1.84375 -0.46875 -2.5625 -0.796875q-0.703125 -0.34375 -1.078125 -0.9375q-0.359375 -0.609375 -0.359375 -1.328125q0 -0.6562462 0.296875 -1.2187462q0.3125 -0.5625 0.828125 -0.9375q0.390625 -0.28125 1.0625 -0.484375q0.671875 -0.203125 1.4375 -0.203125q1.171875 0 2.046875 0.34375q0.875 0.328125 1.28125 0.90625q0.421875 0.5625 0.578125 1.5156212l-1.625 0.21875q-0.109375 -0.75 -0.65625 -1.1718712q-0.53125 -0.4375 -1.5 -0.4375q-1.15625 0 -1.640625 0.390625q-0.484375 0.375 -0.484375 0.8749962q0 0.328125 0.203125 0.59375q0.203125 0.265625 0.640625 0.4375q0.25 0.09375 1.46875 0.4375q1.765625 0.46875 2.46875 0.765625q0.703125 0.296875 1.09375 0.875q0.40625 0.578125 0.40625 1.4375q0 0.828125 -0.484375 1.578125q-0.484375 0.734375 -1.40625 1.140625q-0.921875 0.390625 -2.078125 0.390625q-1.921875 0 -2.9375 -0.796875q-1.0 -0.796875 -1.28125 -2.359375zm13.65625 1.4375l0.234375 1.484375q-0.703125 0.140625 -1.265625 0.140625q-0.90625 0 -1.40625 -0.28125q-0.5 -0.296875 -0.703125 -0.75q-0.203125 -0.46875 -0.203125 -1.984375l0 -5.656246l-1.234375 0l0 -1.3125l1.234375 0l0 -2.4375l1.65625 -1.0l0 3.4375l1.6875 0l0 1.3125l-1.6875 0l0 5.749996q0 0.71875 0.078125 0.921875q0.09375 0.203125 0.296875 0.328125q0.203125 0.125 0.578125 0.125q0.265625 0 0.734375 -0.078125zm7.355179 1.5l-1.671875 0l0 -10.640621q-0.59375 0.578125 -1.578125 1.15625q-0.984375 0.5625 -1.765625 0.859375l0 -1.625q1.40625 -0.65625 2.453125 -1.59375q1.046875 -0.9375 1.484375 -1.8125l1.078125 0l0 13.656246z" fill-rule="nonzero"></path><path fill="#cfe2f3" d="m28.409449 153.23097l208.0 0l0 40.0l-208.0 0z" fill-rule="nonzero"></path><path stroke="#000000" stroke-width="2.0" stroke-linejoin="round" stroke-linecap="butt" d="m28.409449 153.23097l208.0 0l0 40.0l-208.0 0z" fill-rule="nonzero"></path><path fill="#000000" d="m105.66141 183.93222l0 -13.640625l1.53125 0l0 1.28125q0.53125 -0.75 1.203125 -1.125q0.6875 -0.375 1.640625 -0.375q1.265625 0 2.234375 0.65625q0.96875 0.640625 1.453125 1.828125q0.5 1.1875 0.5 2.59375q0 1.515625 -0.546875 2.734375q-0.546875 1.203125 -1.578125 1.84375q-1.03125 0.640625 -2.171875 0.640625q-0.84375 0 -1.515625 -0.34375q-0.65625 -0.359375 -1.078125 -0.890625l0 4.796875l-1.671875 0zm1.515625 -8.65625q0 1.90625 0.765625 2.8125q0.78125 0.90625 1.875 0.90625q1.109375 0 1.890625 -0.9375q0.796875 -0.9375 0.796875 -2.921875q0 -1.875 -0.78125 -2.8125q-0.765625 -0.9375 -1.84375 -0.9375q-1.0625 0 -1.890625 1.0q-0.8125 1.0 -0.8125 2.890625zm8.844467 4.875l0 -9.859375l1.5 0l0 1.5q0.578125 -1.046875 1.0625 -1.375q0.484375 -0.34375 1.078125 -0.34375q0.84375 0 1.71875 0.546875l-0.578125 1.546875q-0.609375 -0.359375 -1.234375 -0.359375q-0.546875 0 -0.984375 0.328125q-0.421875 0.328125 -0.609375 0.90625q-0.28125 0.890625 -0.28125 1.953125l0 5.15625l-1.671875 0zm6.243927 -11.6875l0 -1.90625l1.671875 0l0 1.90625l-1.671875 0zm0 11.6875l0 -9.859375l1.671875 0l0 9.859375l-1.671875 0zm6.863571 0l-3.75 -9.859375l1.765625 0l2.125 5.90625q0.34375 0.953125 0.625 1.984375q0.21875 -0.78125 0.625 -1.875l2.1875 -6.015625l1.71875 0l-3.734375 9.859375l-1.5625 0zm13.03125 -1.21875q-0.9375 0.796875 -1.796875 1.125q-0.859375 0.3125 -1.84375 0.3125q-1.609375 0 -2.484375 -0.78125q-0.875 -0.796875 -0.875 -2.03125q0 -0.734375 0.328125 -1.328125q0.328125 -0.59375 0.859375 -0.953125q0.53125 -0.359375 1.203125 -0.546875q0.5 -0.140625 1.484375 -0.25q2.03125 -0.25 2.984375 -0.578125q0 -0.34375 0 -0.4375q0 -1.015625 -0.46875 -1.4375q-0.640625 -0.5625 -1.90625 -0.5625q-1.171875 0 -1.734375 0.40625q-0.5625 0.40625 -0.828125 1.46875l-1.640625 -0.234375q0.234375 -1.046875 0.734375 -1.6875q0.515625 -0.640625 1.46875 -0.984375q0.96875 -0.359375 2.25 -0.359375q1.265625 0 2.046875 0.296875q0.78125 0.296875 1.15625 0.75q0.375 0.453125 0.515625 1.140625q0.09375 0.421875 0.09375 1.53125l0 2.234375q0 2.328125 0.09375 2.953125q0.109375 0.609375 0.4375 1.171875l-1.75 0q-0.265625 -0.515625 -0.328125 -1.21875zm-0.140625 -3.71875q-0.90625 0.359375 -2.734375 0.625q-1.03125 0.140625 -1.453125 0.328125q-0.421875 0.1875 -0.65625 0.546875q-0.234375 0.359375 -0.234375 0.796875q0 0.671875 0.5 1.125q0.515625 0.4375 1.484375 0.4375q0.96875 0 1.71875 -0.421875q0.75 -0.4375 1.109375 -1.15625q0.265625 -0.578125 0.265625 -1.671875l0 -0.609375zm7.735092 3.4375l0.234375 1.484375q-0.703125 0.140625 -1.265625 0.140625q-0.90625 0 -1.40625 -0.28125q-0.5 -0.296875 -0.703125 -0.75q-0.203125 -0.46875 -0.203125 -1.984375l0 -5.65625l-1.234375 0l0 -1.3125l1.234375 0l0 -2.4375l1.65625 -1.0l0 3.4375l1.6875 0l0 1.3125l-1.6875 0l0 5.75q0 0.71875 0.078125 0.921875q0.09375 0.203125 0.296875 0.328125q0.203125 0.125 0.578125 0.125q0.265625 0 0.734375 -0.078125zm8.277054 -1.671875l1.71875 0.21875q-0.40625 1.5 -1.515625 2.34375q-1.09375 0.828125 -2.8125 0.828125q-2.15625 0 -3.421875 -1.328125q-1.265625 -1.328125 -1.265625 -3.734375q0 -2.484375 1.265625 -3.859375q1.28125 -1.375 3.328125 -1.375q1.984375 0 3.234375 1.34375q1.25 1.34375 1.25 3.796875q0 0.140625 -0.015625 0.4375l-7.34375 0q0.09375 1.625 0.921875 2.484375q0.828125 0.859375 2.0625 0.859375q0.90625 0 1.546875 -0.46875q0.65625 -0.484375 1.046875 -1.546875zm-5.484375 -2.703125l5.5 0q-0.109375 -1.234375 -0.625 -1.859375q-0.796875 -0.96875 -2.078125 -0.96875q-1.140625 0 -1.9375 0.78125q-0.78125 0.765625 -0.859375 2.046875z" fill-rule="nonzero"></path><path fill="#ffe599" d="m64.40945 299.93176l30.599998 -30.600006l0 15.299988l22.100006 0l0 -22.099976l-15.300003 0l30.600006 -30.600006l30.59999 30.600006l-15.300003 0l0 22.099976l22.100006 0l0 -15.299988l30.600006 30.600006l-30.600006 30.600006l0 -15.300018l-22.100006 0l0 22.100006l15.300003 0l-30.59999 30.600006l-30.600006 -30.600006l15.300003 0l0 -22.100006l-22.100006 0l0 15.300018z" fill-rule="nonzero"></path><path stroke="#000000" stroke-width="2.0" stroke-linejoin="round" stroke-linecap="butt" d="m64.40945 299.93176l30.599998 -30.600006l0 15.299988l22.100006 0l0 -22.099976l-15.300003 0l30.600006 -30.600006l30.59999 30.600006l-15.300003 0l0 22.099976l22.100006 0l0 -15.299988l30.600006 30.600006l-30.600006 30.600006l0 -15.300018l-22.100006 0l0 22.100006l15.300003 0l-30.59999 30.600006l-30.600006 -30.600006l15.300003 0l0 -22.100006l-22.100006 0l0 15.300018z" fill-rule="nonzero"></path><path fill="#000000" d="m93.72797 310.633l0 -13.640625l1.53125 0l0 1.28125q0.53125 -0.75 1.203125 -1.125q0.6875 -0.375 1.640625 -0.375q1.265625 0 2.234375 0.65625q0.96875 0.640625 1.453125 1.828125q0.5 1.1875 0.5 2.59375q0 1.515625 -0.546875 2.734375q-0.546875 1.203125 -1.578125 1.84375q-1.03125 0.640625 -2.171875 0.640625q-0.84375 0 -1.515625 -0.34375q-0.65625 -0.359375 -1.078125 -0.890625l0 4.796875l-1.671875 0zm1.515625 -8.65625q0 1.90625 0.765625 2.8125q0.78125 0.90625 1.875 0.90625q1.109375 0 1.890625 -0.9375q0.796875 -0.9375 0.796875 -2.921875q0 -1.875 -0.78125 -2.8125q-0.765625 -0.9375 -1.84375 -0.9375q-1.0625 0 -1.890625 1.0q-0.8125 1.0 -0.8125 2.890625zm15.313217 4.875l0 -1.453125q-1.140625 1.671875 -3.125 1.671875q-0.859375 0 -1.625 -0.328125q-0.75 -0.34375 -1.125 -0.84375q-0.359375 -0.5 -0.515625 -1.234375q-0.09375 -0.5 -0.09375 -1.5625l0 -6.109375l1.671875 0l0 5.46875q0 1.3125 0.09375 1.765625q0.15625 0.65625 0.671875 1.03125q0.515625 0.375 1.265625 0.375q0.75 0 1.40625 -0.375q0.65625 -0.390625 0.921875 -1.046875q0.28125 -0.671875 0.28125 -1.9375l0 -5.28125l1.671875 0l0 9.859375l-1.5 0zm5.469467 0l-1.546875 0l0 -13.59375l1.65625 0l0 4.84375q1.0625 -1.328125 2.703125 -1.328125q0.90625 0 1.71875 0.375q0.8125 0.359375 1.328125 1.03125q0.53125 0.65625 0.828125 1.59375q0.296875 0.9375 0.296875 2.0q0 2.53125 -1.25 3.921875q-1.25 1.375 -3.0 1.375q-1.75 0 -2.734375 -1.453125l0 1.234375zm-0.015625 -5.0q0 1.765625 0.46875 2.5625q0.796875 1.28125 2.140625 1.28125q1.09375 0 1.890625 -0.9375q0.796875 -0.953125 0.796875 -2.84375q0 -1.921875 -0.765625 -2.84375q-0.765625 -0.921875 -1.84375 -0.921875q-1.09375 0 -1.890625 0.953125q-0.796875 0.953125 -0.796875 2.75zm8.828842 5.0l0 -9.859375l1.5 0l0 1.5q0.578125 -1.046875 1.0625 -1.375q0.484375 -0.34375 1.078125 -0.34375q0.84375 0 1.71875 0.546875l-0.578125 1.546875q-0.609375 -0.359375 -1.234375 -0.359375q-0.546875 0 -0.984375 0.328125q-0.421875 0.328125 -0.609375 0.90625q-0.28125 0.890625 -0.28125 1.953125l0 5.15625l-1.671875 0zm5.603302 -4.921875q0 -2.734375 1.53125 -4.0625q1.265625 -1.09375 3.09375 -1.09375q2.03125 0 3.3125 1.34375q1.296875 1.328125 1.296875 3.671875q0 1.90625 -0.578125 3.0q-0.5625 1.078125 -1.65625 1.6875q-1.078125 0.59375 -2.375 0.59375q-2.0625 0 -3.34375 -1.328125q-1.28125 -1.328125 -1.28125 -3.8125zm1.71875 0q0 1.890625 0.828125 2.828125q0.828125 0.9375 2.078125 0.9375q1.25 0 2.0625 -0.9375q0.828125 -0.953125 0.828125 -2.890625q0 -1.828125 -0.828125 -2.765625q-0.828125 -0.9375 -2.0625 -0.9375q-1.25 0 -2.078125 0.9375q-0.828125 0.9375 -0.828125 2.828125zm15.735092 4.921875l0 -1.453125q-1.140625 1.671875 -3.125 1.671875q-0.859375 0 -1.625 -0.328125q-0.75 -0.34375 -1.125 -0.84375q-0.359375 -0.5 -0.515625 -1.234375q-0.09375 -0.5 -0.09375 -1.5625l0 -6.109375l1.671875 0l0 5.46875q0 1.3125 0.09375 1.765625q0.15625 0.65625 0.671875 1.03125q0.515625 0.375 1.265625 0.375q0.75 0 1.40625 -0.375q0.65625 -0.390625 0.921875 -1.046875q0.28125 -0.671875 0.28125 -1.9375l0 -5.28125l1.671875 0l0 9.859375l-1.5 0zm7.578842 -1.5l0.234375 1.484375q-0.703125 0.140625 -1.265625 0.140625q-0.90625 0 -1.40625 -0.28125q-0.5 -0.296875 -0.703125 -0.75q-0.203125 -0.46875 -0.203125 -1.984375l0 -5.65625l-1.234375 0l0 -1.3125l1.234375 0l0 -2.4375l1.65625 -1.0l0 3.4375l1.6875 0l0 1.3125l-1.6875 0l0 5.75q0 0.71875 0.078125 0.921875q0.09375 0.203125 0.296875 0.328125q0.203125 0.125 0.578125 0.125q0.265625 0 0.734375 -0.078125zm8.277054 -1.671875l1.71875 0.21875q-0.40625 1.5 -1.515625 2.34375q-1.09375 0.828125 -2.8125 0.828125q-2.15625 0 -3.421875 -1.328125q-1.265625 -1.328125 -1.265625 -3.734375q0 -2.484375 1.265625 -3.859375q1.28125 -1.375 3.328125 -1.375q1.984375 0 3.234375 1.34375q1.25 1.34375 1.25 3.796875q0 0.140625 -0.015625 0.4375l-7.34375 0q0.09375 1.625 0.921875 2.484375q0.828125 0.859375 2.0625 0.859375q0.90625 0 1.546875 -0.46875q0.65625 -0.484375 1.046875 -1.546875zm-5.484375 -2.703125l5.5 0q-0.109375 -1.234375 -0.625 -1.859375q-0.796875 -0.96875 -2.078125 -0.96875q-1.140625 0 -1.9375 0.78125q-0.78125 0.765625 -0.859375 2.046875zm9.094467 5.875l0 -9.859375l1.5 0l0 1.5q0.578125 -1.046875 1.0625 -1.375q0.484375 -0.34375 1.078125 -0.34375q0.84375 0 1.71875 0.546875l-0.578125 1.546875q-0.609375 -0.359375 -1.234375 -0.359375q-0.546875 0 -0.984375 0.328125q-0.421875 0.328125 -0.609375 0.90625q-0.28125 0.890625 -0.28125 1.953125l0 5.15625l-1.671875 0z" fill-rule="nonzero"></path><path fill="#cfe2f3" d="m255.7222 278.47324l0 0c-1.6770172 -10.970062 3.8289795 -21.829712 14.181549 -27.970871c10.3526 -6.141144 23.736176 -6.48674 34.47162 -0.8901367l0 0c3.8027954 -6.378433 10.763062 -10.782303 18.775421 -11.879532c8.01236 -1.0972137 16.135742 1.2410889 21.912994 6.3076324l0 0c3.239502 -5.7830963 9.600342 -9.66861 16.825348 -10.2777405c7.2249756 -0.60913086 14.2916565 2.144333 18.692352 7.2832947l0 0c5.8526306 -6.130081 15.164337 -8.71109 23.905884 -6.6262207c8.741547 2.0848541 15.342865 8.461136 16.94751 16.369766l0 0c7.1705017 1.7409668 13.143341 6.166748 16.375397 12.13382c3.2320557 5.967102 3.4062195 12.890137 0.47750854 18.980469l0 0c7.060852 8.179993 8.712555 19.079681 4.338745 28.631561c-4.37381 9.55188 -14.116028 16.320862 -25.591034 17.780884c-0.08087158 8.964783 -5.6043396 17.190735 -14.441376 21.507263c-8.837067 4.3165283 -19.607788 4.04953 -28.160675 -0.69802856c-3.6430664 10.736877 -13.897095 18.636963 -26.33197 20.28714c-12.4348755 1.650177 -24.82138 -3.2453918 -31.808105 -12.571625c-8.5642395 4.596924 -18.840668 5.9211426 -28.511047 3.6739502c-9.67041 -2.2471924 -17.920197 -7.8764954 -22.888397 -15.618103l0 0c-8.751617 0.9115906 -17.213196 -3.1244202 -21.185318 -10.10498c-3.9721222 -6.980591 -2.6092072 -15.419708 3.4123383 -21.12909l0 0c-7.806656 -4.089905 -11.79007 -12.205658 -9.873077 -20.115234c1.9170074 -7.909546 9.300034 -13.820557 18.299133 -14.650635z" fill-rule="nonzero"></path><path stroke="#000000" stroke-width="2.0" stroke-linejoin="round" stroke-linecap="butt" d="m255.7222 278.47324l0 0c-1.6770172 -10.970062 3.8289795 -21.829712 14.181549 -27.970871c10.3526 -6.141144 23.736176 -6.48674 34.47162 -0.8901367l0 0c3.8027954 -6.378433 10.763062 -10.782303 18.775421 -11.879532c8.01236 -1.0972137 16.135742 1.2410889 21.912994 6.3076324l0 0c3.239502 -5.7830963 9.600342 -9.66861 16.825348 -10.2777405c7.2249756 -0.60913086 14.2916565 2.144333 18.692352 7.2832947l0 0c5.8526306 -6.130081 15.164337 -8.71109 23.905884 -6.6262207c8.741547 2.0848541 15.342865 8.461136 16.94751 16.369766l0 0c7.1705017 1.7409668 13.143341 6.166748 16.375397 12.13382c3.2320557 5.967102 3.4062195 12.890137 0.47750854 18.980469l0 0c7.060852 8.179993 8.712555 19.079681 4.338745 28.631561c-4.37381 9.55188 -14.116028 16.320862 -25.591034 17.780884c-0.08087158 8.964783 -5.6043396 17.190735 -14.441376 21.507263c-8.837067 4.3165283 -19.607788 4.04953 -28.160675 -0.69802856c-3.6430664 10.736877 -13.897095 18.636963 -26.33197 20.28714c-12.4348755 1.650177 -24.82138 -3.2453918 -31.808105 -12.571625c-8.5642395 4.596924 -18.840668 5.9211426 -28.511047 3.6739502c-9.67041 -2.2471924 -17.920197 -7.8764954 -22.888397 -15.618103l0 0c-8.751617 0.9115906 -17.213196 -3.1244202 -21.185318 -10.10498c-3.9721222 -6.980591 -2.6092072 -15.419708 3.4123383 -21.12909l0 0c-7.806656 -4.089905 -11.79007 -12.205658 -9.873077 -20.115234c1.9170074 -7.909546 9.300034 -13.820557 18.299133 -14.650635z" fill-rule="nonzero"></path><path fill="#000000" fill-opacity="0.0" d="m247.12315 313.66193l0 0c3.6839905 1.9300537 7.93985 2.805542 12.196182 2.5089722m5.5748596 28.7258c1.8303833 -0.19067383 3.6245117 -0.5944214 5.33609 -1.2008057m46.06082 13.14444c-1.2873535 -1.7184448 -2.3652039 -3.554779 -3.2151794 -5.477661m61.357483 -2.2381897l0 0c0.6641846 -1.957489 1.0945129 -3.972168 1.2838135 -6.010437m41.31662 -14.798035c0.086120605 -9.544403 -6.004059 -18.283325 -15.654602 -22.463196m36.906677 -23.948242c-1.5628662 3.250061 -3.948761 6.1331177 -6.9706116 8.423157m-9.880829 -39.5383l0 0c0.2662964 1.3124542 0.38955688 2.6446075 0.36801147 3.9780426m-41.220703 -13.721191l0 0c-1.4599609 1.5291443 -2.6627502 3.2379456 -3.570984 5.0731964m-31.947052 -2.079422l0 0c-0.77804565 1.388916 -1.3590088 2.8586273 -1.7295532 4.3752747m-38.959473 1.1967468l0 0c2.2716064 1.1842346 4.373169 2.6095886 6.258484 4.244751m-54.91101 24.61641l0 0c0.23114014 1.5119324 0.596344 3.005249 1.0922241 4.4659424" fill-rule="nonzero"></path><path stroke="#000000" stroke-width="2.0" stroke-linejoin="round" stroke-linecap="butt" d="m247.12315 313.66193l0 0c3.6839905 1.9300537 7.93985 2.805542 12.196182 2.5089722m5.5748596 28.7258c1.8303833 -0.19067383 3.6245117 -0.5944214 5.33609 -1.2008057m46.06082 13.14444c-1.2873535 -1.7184448 -2.3652039 -3.554779 -3.2151794 -5.477661m61.357483 -2.2381897l0 0c0.6641846 -1.957489 1.0945129 -3.972168 1.2838135 -6.010437m41.31662 -14.798035c0.086120605 -9.544403 -6.004059 -18.283325 -15.654602 -22.463196m36.906677 -23.948242c-1.5628662 3.250061 -3.948761 6.1331177 -6.9706116 8.423157m-9.880829 -39.5383l0 0c0.2662964 1.3124542 0.38955688 2.6446075 0.36801147 3.9780426m-41.220703 -13.721191l0 0c-1.4599609 1.5291443 -2.6627502 3.2379456 -3.570984 5.0731964m-31.947052 -2.079422l0 0c-0.77804565 1.388916 -1.3590088 2.8586273 -1.7295532 4.3752747m-38.959473 1.1967468l0 0c2.2716064 1.1842346 4.373169 2.6095886 6.258484 4.244751m-54.91101 24.61641l0 0c0.23114014 1.5119324 0.596344 3.005249 1.0922241 4.4659424" fill-rule="nonzero"></path><path fill="#000000" d="m310.42453 308.78357l0 -13.640625l1.53125 0l0 1.28125q0.53125 -0.75 1.203125 -1.125q0.6875 -0.375 1.640625 -0.375q1.265625 0 2.234375 0.65625q0.96875 0.640625 1.453125 1.828125q0.5 1.1875 0.5 2.59375q0 1.515625 -0.546875 2.734375q-0.546875 1.203125 -1.578125 1.84375q-1.03125 0.640625 -2.171875 0.640625q-0.84375 0 -1.515625 -0.34375q-0.65625 -0.359375 -1.078125 -0.890625l0 4.796875l-1.671875 0zm1.515625 -8.65625q0 1.90625 0.765625 2.8125q0.78125 0.90625 1.875 0.90625q1.109375 0 1.890625 -0.9375q0.796875 -0.9375 0.796875 -2.921875q0 -1.875 -0.78125 -2.8125q-0.765625 -0.9375 -1.84375 -0.9375q-1.0625 0 -1.890625 1.0q-0.8125 1.0 -0.8125 2.890625zm15.313202 4.875l0 -1.453125q-1.140625 1.671875 -3.125 1.671875q-0.859375 0 -1.625 -0.328125q-0.75 -0.34375 -1.125 -0.84375q-0.359375 -0.5 -0.515625 -1.234375q-0.09375 -0.5 -0.09375 -1.5625l0 -6.109375l1.671875 0l0 5.46875q0 1.3125 0.09375 1.765625q0.15625 0.65625 0.671875 1.03125q0.515625 0.375 1.265625 0.375q0.75 0 1.40625 -0.375q0.65625 -0.390625 0.921875 -1.046875q0.28125 -0.671875 0.28125 -1.9375l0 -5.28125l1.671875 0l0 9.859375l-1.5 0zm5.4694824 0l-1.546875 0l0 -13.59375l1.65625 0l0 4.84375q1.0625 -1.328125 2.703125 -1.328125q0.90625 0 1.71875 0.375q0.8125 0.359375 1.328125 1.03125q0.53125 0.65625 0.828125 1.59375q0.296875 0.9375 0.296875 2.0q0 2.53125 -1.25 3.921875q-1.25 1.375 -3.0 1.375q-1.75 0 -2.734375 -1.453125l0 1.234375zm-0.015625 -5.0q0 1.765625 0.46875 2.5625q0.796875 1.28125 2.140625 1.28125q1.09375 0 1.890625 -0.9375q0.796875 -0.953125 0.796875 -2.84375q0 -1.921875 -0.765625 -2.84375q-0.765625 -0.921875 -1.84375 -0.921875q-1.09375 0 -1.890625 0.953125q-0.796875 0.953125 -0.796875 2.75zm8.813202 5.0l0 -13.59375l1.671875 0l0 13.59375l-1.671875 0zm4.1917114 -11.6875l0 -1.90625l1.671875 0l0 1.90625l-1.671875 0zm0 11.6875l0 -9.859375l1.671875 0l0 9.859375l-1.671875 0zm10.566681 -3.609375l1.640625 0.21875q-0.265625 1.6875 -1.375 2.65625q-1.109375 0.953125 -2.734375 0.953125q-2.015625 0 -3.25 -1.3125q-1.21875 -1.328125 -1.21875 -3.796875q0 -1.59375 0.515625 -2.78125q0.53125 -1.203125 1.609375 -1.796875q1.09375 -0.609375 2.359375 -0.609375q1.609375 0 2.625 0.8125q1.015625 0.8125 1.3125 2.3125l-1.625 0.25q-0.234375 -1.0 -0.828125 -1.5q-0.59375 -0.5 -1.421875 -0.5q-1.265625 0 -2.0625 0.90625q-0.78125 0.90625 -0.78125 2.859375q0 1.984375 0.765625 2.890625q0.765625 0.890625 1.984375 0.890625q0.984375 0 1.640625 -0.59375q0.65625 -0.609375 0.84375 -1.859375z" fill-rule="nonzero"></path><path fill="#000000" fill-opacity="0.0" d="m70.72179 114.53018l0 39.65355" fill-rule="nonzero"></path><path stroke="#000000" stroke-width="2.0" stroke-linejoin="round" stroke-linecap="butt" d="m70.72179 114.53018l0 39.65355" fill-rule="nonzero"></path><path fill="#000000" fill-opacity="0.0" d="m188.67717 113.23097l-0.25196838 40.0" fill-rule="nonzero"></path><path stroke="#000000" stroke-width="2.0" stroke-linejoin="round" stroke-linecap="butt" d="m188.67717 113.23097l-0.25196838 40.0" fill-rule="nonzero"></path><path fill="#000000" fill-opacity="0.0" d="m132.40945 231.93176l0 -38.70079" fill-rule="nonzero"></path><path stroke="#000000" stroke-width="2.0" stroke-linejoin="round" stroke-linecap="butt" d="m132.40945 231.93176l0 -38.70079" fill-rule="nonzero"></path><path fill="#000000" fill-opacity="0.0" d="m200.40945 299.93176l37.180603 1.3017273" fill-rule="nonzero"></path><path stroke="#000000" stroke-width="2.0" stroke-linejoin="round" stroke-linecap="butt" d="m200.40945 299.93176l37.180603 1.3017273" fill-rule="nonzero"></path></g></svg>

